<svg width="406.75002441406247px" height="114.81754150390624px" xmlns="http://www.w3.org/2000/svg" viewBox="46.62498779296877 17.59122924804688 406.75002441406247 114.81754150390624" style="background: none;" preserveAspectRatio="xMidYMid"><defs><linearGradient id="editing-glowing-gradient" x1="0.8146601955249185" x2="0.18533980447508147" y1="0.8885729807284856" y2="0.11142701927151444"><stop offset="0" stop-color="#74c005"></stop><stop offset="1" stop-color="#74c005"></stop></linearGradient><filter id="editing-glowing" x="-100%" y="-100%" width="300%" height="300%"><feGaussianBlur in="SourceGraphic" result="blur" stdDeviation="1"></feGaussianBlur><feMerge><feMergeNode in="blur"></feMergeNode><feMergeNode in="SourceGraphic"></feMergeNode></feMerge></filter></defs><g filter="url(#editing-glowing)"><g transform="translate(107.76000428199768, 97.71999931335449)"><path d="M24.38 0.77L24.38 0.77Q13.76 0.77 8.38-4.90L8.38-4.90L8.38-4.90Q3.01-10.56 3.01-21.95L3.01-21.95L3.01-21.95Q3.01-33.34 8.38-39.01L8.38-39.01L8.38-39.01Q13.76-44.67 24.38-44.67L24.38-44.67L24.38-44.67Q32.96-44.67 38.11-40.42L38.11-40.42L38.11-40.42Q43.26-36.16 43.26-28.03L43.26-28.03L37.06-28.03L37.06-28.03Q37.06-33.66 33.70-36.58L33.70-36.58L33.70-36.58Q30.34-39.49 24.38-39.49L24.38-39.49L24.38-39.49Q16.64-39.49 12.99-35.39L12.99-35.39L12.99-35.39Q9.34-31.30 9.28-22.08L9.28-22.08L9.28-21.95L9.28-21.95Q9.28-12.67 12.93-8.54L12.93-8.54L12.93-8.54Q16.58-4.42 24.38-4.42L24.38-4.42L24.38-4.42Q30.46-4.42 33.89-7.30L33.89-7.30L33.89-7.30Q37.31-10.18 37.31-15.74L37.31-15.74L43.26-15.74L43.26-15.74Q43.26-7.55 38.14-3.39L38.14-3.39L38.14-3.39Q33.02 0.77 24.38 0.77L24.38 0.77ZM51.26 0L51.26-43.90L74.11-43.90L74.11-43.90Q80.70-43.90 84.22-40.51L84.22-40.51L84.22-40.51Q87.74-37.12 87.74-31.42L87.74-31.42L87.74-31.42Q87.74-26.94 85.60-23.68L85.60-23.68L85.60-23.68Q83.46-20.42 79.68-19.01L79.68-19.01L89.79 0L83.01 0L73.47-18.11L57.34-18.11L57.34 0L51.26 0ZM57.34-23.42L73.79-23.42L73.79-23.42Q77.38-23.42 79.49-25.54L79.49-25.54L79.49-25.54Q81.60-27.65 81.60-31.36L81.60-31.36L81.60-31.36Q81.60-34.82 79.62-36.70L79.62-36.70L79.62-36.70Q77.63-38.59 73.79-38.59L73.79-38.59L57.34-38.59L57.34-23.42ZM97.47 0L97.47-43.90L131.26-43.90L131.26-38.59L103.55-38.59L103.55-25.09L128.45-25.09L128.45-19.78L103.55-19.78L103.55-5.31L131.65-5.31L131.65 0L97.47 0ZM135.55 0L152.58-43.90L160.32-43.90L177.34 0L170.88 0L166.46-11.71L146.11-11.71L141.82 0L135.55 0ZM148.10-17.02L164.48-17.02L159.36-30.72L156.42-38.66L156.10-38.66L153.22-30.85L148.10-17.02ZM179.84-14.14L179.84-20.42L197.12-20.42L197.12-14.14L179.84-14.14ZM204.16 0L204.16-43.90L220.42-43.90L220.42-43.90Q230.98-43.90 236.67-38.50L236.67-38.50L236.67-38.50Q242.37-33.09 242.37-21.95L242.37-21.95L242.37-21.95Q242.37-10.82 236.67-5.41L236.67-5.41L236.67-5.41Q230.98 0 220.42 0L220.42 0L204.16 0ZM210.24-5.31L220.42-5.31L220.42-5.31Q228.03-5.31 232.03-9.15L232.03-9.15L232.03-9.15Q236.03-12.99 236.10-21.82L236.10-21.82L236.10-21.95L236.10-21.95Q236.10-30.85 232.10-34.72L232.10-34.72L232.10-34.72Q228.10-38.59 220.42-38.59L220.42-38.59L210.24-38.59L210.24-5.31ZM250.37 0L250.37-43.90L281.47-43.90L281.47-38.59L256.45-38.59L256.45-24.64L279.17-24.64L279.17-19.33L256.45-19.33L256.45 0L250.37 0Z" fill="url(#editing-glowing-gradient)"></path></g></g><style>text {
  font-size: 64px;
  font-family: Arial Black;
  dominant-baseline: central;
  text-anchor: middle;
}</style></svg>